<?xml version="1.0" encoding="utf-8"?>
<!-- Generator: Adobe Illustrator 19.0.0, SVG Export Plug-In . SVG Version: 6.00 Build 0)  -->
<svg version="1.1" id="图层_1" xmlns="http://www.w3.org/2000/svg" xmlns:xlink="http://www.w3.org/1999/xlink" x="0px" y="0px"
	 viewBox="0 0 218 218" style="enable-background:new 0 0 218 218;" xml:space="preserve">
<style type="text/css">
	.st0{fill:none;}
	.st1{fill:url(#SVGID_1_);}
	.st2{enable-background:new    ;}
	.st3{fill:#0085F6;}
</style>
<rect x="0.2" y="3" class="st0" width="217.8" height="25"/>
<g>
	<g>
		
			<linearGradient id="SVGID_1_" gradientUnits="userSpaceOnUse" x1="146.8034" y1="44.5226" x2="71.1966" y2="175.4774" gradientTransform="matrix(1 0 0 -1 0 218)">
			<stop  offset="0" style="stop-color:#0063FF"/>
			<stop  offset="1" style="stop-color:#00C8DE"/>
		</linearGradient>
		<path class="st1" d="M54,147c-2.8,0-5,2.2-5,5s2.2,5,5,5s5-2.2,5-5S56.8,147,54,147z M164,69c2.8,0,5-2.2,5-5s-2.2-5-5-5
			s-5,2.2-5,5C159,66.8,161.2,69,164,69z M163,73.9V142c0.3,0,0.7-0.1,1-0.1c0.7,0,1.4,0.1,2,0.2V73.8c-0.6,0.1-1.3,0.2-2,0.2
			C163.7,74,163.3,74,163,73.9z M55,142.1V73.9c-0.3,0-0.7,0.1-1,0.1c-0.7,0-1.4-0.1-2-0.2v68.4c0.6-0.1,1.3-0.2,2-0.2
			C54.3,142,54.7,142,55,142.1z M63.9,65H154c0-0.3-0.1-0.7-0.1-1c0-0.7,0.1-1.4,0.2-2H63.8c0.1,0.6,0.2,1.3,0.2,2
			C64,64.3,64,64.7,63.9,65z M126.3,106.2c-0.5,0-1,0.2-1.3,0.6l-7.9,10.7L100,96c-0.3-0.4-0.4-0.4-1-0.4c-0.5,0-0.7,0-1,0.4l-34,44
			h3l32-41l33,41h3l-16.1-20.2l7.4-10.1L152,140h3l-27.4-33.2C127.3,106.4,126.8,106.3,126.3,106.2z M164,147c-2.8,0-5,2.2-5,5
			s2.2,5,5,5s5-2.2,5-5S166.8,147,164,147z M54,59c-2.8,0-5,2.2-5,5c0,2.8,2.2,5,5,5s5-2.2,5-5S56.8,59,54,59z M154.1,151H63.9
			c0,0.3,0.1,0.7,0.1,1c0,0.7-0.1,1.4-0.2,2h90.4c-0.1-0.6-0.2-1.3-0.2-2C154,151.7,154,151.3,154.1,151z M140,107l1.6,2.4
			c3.8-2.1,6.4-6.2,6.4-10.9c0-6.9-5.6-12.5-12.5-12.5S123,91.6,123,98.5c0,0.2,0,0.5,0,0.5h3v-1c0-5,4.5-9,9.7-9
			c5.1,0,9.3,4.1,9.3,9.1C145,101.7,143.2,105.6,140,107z"/>
	</g>
</g>
<g class="st2">
	<path class="st3" d="M110.5,184.7c0.8,0.6,1.2,1.4,1.3,2.4h-1.1c-0.1-0.7-0.5-1.3-1.1-1.7c-0.5-0.4-1.2-0.6-2-0.6
		c-1.2,0-2.1,0.4-2.7,1.2c-0.6,0.8-0.9,1.8-0.9,3c0,1.3,0.3,2.2,0.9,3c0.6,0.8,1.5,1.2,2.7,1.2c0.8,0,1.5-0.2,2-0.6
		c0.6-0.5,1-1.1,1.2-2h1.1c-0.2,1.2-0.7,2.1-1.6,2.7c-0.8,0.6-1.7,0.9-2.8,0.9c-1.5,0-2.7-0.5-3.6-1.5c-0.7-0.9-1.1-2.1-1.1-3.6
		s0.4-2.7,1.1-3.7c0.8-1.1,2-1.6,3.6-1.6C108.8,183.8,109.7,184.1,110.5,184.7z"/>
	<path class="st3" d="M113.6,184h1.1v10h-1.1V184z"/>
</g>
</svg>
